<?xml version="1.0" standalone="no"?>
<!DOCTYPE svg PUBLIC "-//W3C//DTD SVG 20010904//EN"
 "http://www.w3.org/TR/2001/REC-SVG-20010904/DTD/svg10.dtd">
<svg version="1.0" xmlns="http://www.w3.org/2000/svg"
 width="444.000000pt" height="595.000000pt" viewBox="0 0 444.000000 595.000000"
 preserveAspectRatio="xMidYMid meet">
<metadata>
Created by potrace 1.15, written by Peter Selinger 2001-2017
</metadata>
<g transform="translate(0.000000,595.000000) scale(0.100000,-0.100000)"
fill="#000000" stroke="none">
<path d="M2785 5922 c-144 -104 -408 -462 -526 -712 -27 -58 -55 -116 -62
-130 -12 -23 -20 -25 -104 -31 -237 -17 -492 -104 -688 -234 -38 -26 -110 -71
-160 -100 -87 -52 -94 -54 -195 -64 -139 -14 -216 -34 -327 -86 -255 -119
-465 -336 -603 -620 -90 -185 -114 -272 -114 -430 -1 -125 0 -132 28 -185 34
-64 138 -170 218 -220 61 -38 68 -54 68 -158 0 -129 53 -380 114 -538 104
-272 240 -481 450 -689 l121 -120 -33 -66 c-60 -122 -78 -285 -45 -403 24 -87
92 -155 188 -187 68 -23 78 -24 415 -24 328 0 348 1 415 22 45 14 86 36 114
60 42 35 91 119 91 156 0 14 10 17 65 17 55 0 65 -3 65 -17 0 -37 49 -120 91
-156 52 -45 139 -74 249 -83 44 -4 80 -10 80 -15 0 -26 -66 -41 -528 -123
l-502 -88 -75 70 c-93 85 -167 124 -247 130 -78 6 -132 -16 -190 -76 -63 -64
-91 -123 -96 -198 -5 -76 25 -151 83 -207 l38 -37 -28 -52 c-36 -65 -38 -139
-6 -191 67 -109 262 -170 376 -118 69 31 154 146 188 252 4 12 56 27 199 58
106 23 343 74 527 114 l334 72 55 -58 c35 -36 79 -69 119 -89 56 -27 70 -30
126 -26 95 8 177 61 218 139 40 80 8 187 -78 258 l-38 31 24 16 c31 22 81 102
81 131 0 17 8 24 38 33 88 23 161 95 187 184 33 111 9 306 -52 419 l-28 51
126 126 c217 215 348 417 449 690 59 160 109 397 111 521 1 109 7 123 79 170
88 58 181 153 216 219 28 53 29 60 28 185 0 158 -24 245 -114 430 -138 284
-348 501 -603 620 -113 52 -189 72 -332 86 -107 10 -113 12 -195 62 -47 27
-121 74 -165 102 -93 61 -182 107 -262 136 -32 12 -61 24 -65 28 -4 3 11 62
33 131 122 383 198 750 167 810 -20 37 -64 38 -113 2z m-934 -1706 c101 -31
185 -105 233 -206 28 -59 31 -74 31 -160 0 -86 -3 -101 -31 -160 -39 -83 -101
-145 -184 -184 -161 -76 -362 -27 -466 115 -55 75 -74 135 -74 232 1 91 24
164 74 230 38 50 119 108 180 129 62 21 174 23 237 4z m1012 -20 c76 -37 152
-112 185 -183 34 -75 43 -206 17 -282 -37 -111 -143 -214 -257 -248 -34 -9
-79 -14 -127 -11 -142 6 -263 88 -325 218 -28 59 -31 74 -31 160 0 86 3 101
31 160 34 71 83 126 146 167 66 41 115 52 214 50 75 -2 99 -7 147 -31z m243
-3141 c67 -33 104 -76 104 -121 0 -26 -9 -43 -42 -77 -24 -24 -54 -50 -67 -58
-32 -20 -22 -45 32 -84 64 -47 107 -109 107 -155 0 -72 -94 -150 -181 -150
-60 0 -120 34 -195 112 -57 59 -71 68 -93 63 -289 -61 -1080 -235 -1093 -240
-9 -4 -22 -23 -29 -43 -36 -115 -114 -211 -185 -231 -91 -25 -255 56 -270 134
-7 38 21 109 55 139 31 28 26 50 -24 90 -99 82 -123 176 -70 274 94 174 235
169 415 -13 35 -36 72 -65 82 -65 15 0 1010 173 1064 185 13 3 28 23 44 62 79
194 194 252 346 178z"/>
<path d="M1799 3913 c-107 -66 -63 -236 61 -236 101 0 162 105 110 190 -35 59
-116 80 -171 46z"/>
<path d="M2503 3910 c-79 -48 -82 -167 -5 -212 56 -33 112 -27 155 16 45 45
53 87 27 140 -35 72 -111 97 -177 56z"/>
</g>
</svg>
